<svg width="201" height="47" viewBox="0 0 201 47" fill="none" xmlns="http://www.w3.org/2000/svg">
<g filter="url(#filter0_d_2_11)">
<path d="M4.54545 30V0.90909H13.6364C15.2652 0.90909 16.6572 1.20739 17.8125 1.80398C18.9773 2.3911 19.8674 3.23864 20.483 4.34659C21.108 5.44508 21.4205 6.76136 21.4205 8.29545C21.4205 9.43182 21.2453 10.4782 20.8949 11.4347C20.554 12.3911 20.0521 13.196 19.3892 13.8494C18.7263 14.4934 17.9261 14.9337 16.9886 15.1705V15.2841C18.0398 15.3693 18.9867 15.7339 19.8295 16.3778C20.6723 17.0218 21.3352 17.8741 21.8182 18.9347C22.3106 19.9953 22.5568 21.2027 22.5568 22.5568C22.5568 24.053 22.2396 25.3598 21.6051 26.4773C20.9801 27.5947 20.071 28.4612 18.8778 29.0767C17.6941 29.6922 16.2689 30 14.6023 30H4.54545ZM5.45455 29.0909H14.6023C16.733 29.0909 18.4375 28.4943 19.7159 27.3011C21.0038 26.0985 21.6477 24.517 21.6477 22.5568C21.6477 21.2121 21.3447 20.0237 20.7386 18.9915C20.1326 17.9593 19.2992 17.1496 18.2386 16.5625C17.1875 15.9754 15.9754 15.6818 14.6023 15.6818H5.45455V29.0909ZM5.45455 14.7727H14.6023C15.928 14.7727 17.0265 14.4744 17.8977 13.8778C18.7689 13.2812 19.4223 12.4905 19.858 11.5057C20.2936 10.5208 20.5114 9.45076 20.5114 8.29545C20.5114 6.23106 19.8958 4.63542 18.6648 3.50852C17.4337 2.38163 15.7576 1.81818 13.6364 1.81818H5.45455V14.7727ZM52.6136 15.4545C52.6136 18.4186 52.107 21.0227 51.0938 23.267C50.0805 25.5114 48.6695 27.2633 46.8608 28.5227C45.0521 29.7727 42.9545 30.3977 40.5682 30.3977C38.1723 30.3977 36.0701 29.768 34.2614 28.5085C32.4527 27.2491 31.0417 25.4972 30.0284 23.2528C29.0246 21.0085 28.5227 18.4091 28.5227 15.4545C28.5227 12.4905 29.0294 9.8911 30.0426 7.65625C31.0559 5.41193 32.4669 3.66004 34.2756 2.40057C36.0843 1.1411 38.1818 0.511363 40.5682 0.511363C42.9545 0.511363 45.0521 1.1411 46.8608 2.40057C48.6695 3.65057 50.0805 5.39773 51.0938 7.64205C52.107 9.88636 52.6136 12.4905 52.6136 15.4545ZM51.7045 15.4545C51.7045 12.6705 51.2358 10.2273 50.2983 8.125C49.3608 6.01326 48.054 4.37026 46.3778 3.19602C44.7112 2.01231 42.7746 1.42045 40.5682 1.42045C38.3712 1.42045 36.4347 2.00757 34.7585 3.18182C33.0919 4.34659 31.785 5.98485 30.8381 8.09659C29.9006 10.1989 29.4318 12.6515 29.4318 15.4545C29.4318 18.2197 29.8958 20.6581 30.8239 22.7699C31.7519 24.8722 33.0492 26.5199 34.7159 27.7131C36.392 28.8968 38.3428 29.4886 40.5682 29.4886C42.7746 29.4886 44.7159 28.9015 46.392 27.7273C48.0682 26.5436 49.375 24.9006 50.3125 22.7983C51.25 20.6866 51.714 18.2386 51.7045 15.4545ZM82.4964 15.4545C82.4964 18.4186 81.9898 21.0227 80.9766 23.267C79.9633 25.5114 78.5523 27.2633 76.7436 28.5227C74.9349 29.7727 72.8374 30.3977 70.451 30.3977C68.0552 30.3977 65.9529 29.768 64.1442 28.5085C62.3355 27.2491 60.9245 25.4972 59.9112 23.2528C58.9074 21.0085 58.4055 18.4091 58.4055 15.4545C58.4055 12.4905 58.9122 9.8911 59.9254 7.65625C60.9387 5.41193 62.3497 3.66004 64.1584 2.40057C65.9671 1.1411 68.0646 0.511363 70.451 0.511363C72.8374 0.511363 74.9349 1.1411 76.7436 2.40057C78.5523 3.65057 79.9633 5.39773 80.9766 7.64205C81.9898 9.88636 82.4964 12.4905 82.4964 15.4545ZM81.5874 15.4545C81.5874 12.6705 81.1186 10.2273 80.1811 8.125C79.2436 6.01326 77.9368 4.37026 76.2607 3.19602C74.594 2.01231 72.6574 1.42045 70.451 1.42045C68.254 1.42045 66.3175 2.00757 64.6413 3.18182C62.9747 4.34659 61.6679 5.98485 60.7209 8.09659C59.7834 10.1989 59.3146 12.6515 59.3146 15.4545C59.3146 18.2197 59.7786 20.6581 60.7067 22.7699C61.6347 24.8722 62.9321 26.5199 64.5987 27.7131C66.2749 28.8968 68.2256 29.4886 70.451 29.4886C72.6574 29.4886 74.5987 28.9015 76.2749 27.7273C77.951 26.5436 79.2578 24.9006 80.1953 22.7983C81.1328 20.6866 81.5968 18.2386 81.5874 15.4545ZM89.9361 30V0.90909H90.8452V19.0341H90.9588L107.436 0.90909H108.686L95.8452 15L108.516 30H107.322L95.2202 15.6818L90.8452 20.5114V30H89.9361ZM126.971 12.7841L126.062 13.0114C125.768 12.0644 125.356 11.2784 124.826 10.6534C124.305 10.0189 123.666 9.54545 122.908 9.23295C122.151 8.91098 121.27 8.75 120.266 8.75C118.524 8.75 117.113 9.19508 116.033 10.0852C114.954 10.9659 114.414 12.1307 114.414 13.5795C114.414 14.7254 114.779 15.6866 115.508 16.4631C116.246 17.2396 117.359 17.8125 118.846 18.1818L122.255 19.0341C123.855 19.4318 125.067 20.1042 125.891 21.0511C126.725 21.9981 127.141 23.1439 127.141 24.4886C127.141 25.6723 126.829 26.714 126.204 27.6136C125.588 28.5133 124.736 29.214 123.647 29.7159C122.558 30.2083 121.299 30.4545 119.869 30.4545C117.927 30.4545 116.341 29.9811 115.11 29.0341C113.879 28.0871 113.079 26.7424 112.71 25L113.619 24.7727C113.941 26.3163 114.627 27.5 115.678 28.3239C116.739 29.1383 118.136 29.5455 119.869 29.5455C121.763 29.5455 123.297 29.0814 124.471 28.1534C125.645 27.2254 126.232 26.0038 126.232 24.4886C126.232 23.3617 125.882 22.41 125.181 21.6335C124.48 20.857 123.429 20.2936 122.028 19.9432L118.619 19.0909C116.942 18.6742 115.669 17.9924 114.798 17.0455C113.936 16.0985 113.505 14.9432 113.505 13.5795C113.505 12.4337 113.789 11.4347 114.357 10.5824C114.935 9.72064 115.73 9.0483 116.744 8.56534C117.766 8.08239 118.941 7.84091 120.266 7.84091C121.952 7.84091 123.358 8.25757 124.485 9.09091C125.612 9.91477 126.441 11.1458 126.971 12.7841ZM134.538 15.3409V30H133.629V0.90909H134.538V11.6477H134.652C135.163 10.5114 136.001 9.60227 137.166 8.92045C138.34 8.23864 139.68 7.89773 141.186 7.89773C142.644 7.89773 143.932 8.21496 145.05 8.84943C146.167 9.4839 147.043 10.3598 147.678 11.4773C148.312 12.5947 148.629 13.8826 148.629 15.3409V30H147.72V15.3409C147.72 13.4091 147.114 11.8371 145.902 10.625C144.69 9.41288 143.118 8.80682 141.186 8.80682C139.898 8.80682 138.752 9.08617 137.749 9.64489C136.754 10.2036 135.968 10.9754 135.391 11.9602C134.822 12.9451 134.538 14.072 134.538 15.3409ZM164.091 30.4545C162.377 30.4545 160.838 29.9621 159.474 28.9773C158.111 27.983 157.031 26.6335 156.236 24.929C155.45 23.215 155.057 21.2879 155.057 19.1477C155.057 16.9981 155.45 15.071 156.236 13.3665C157.031 11.6619 158.111 10.3172 159.474 9.33239C160.838 8.33807 162.377 7.84091 164.091 7.84091C165.805 7.84091 167.339 8.33807 168.693 9.33239C170.057 10.3267 171.136 11.6761 171.932 13.3807C172.727 15.0852 173.125 17.0076 173.125 19.1477C173.125 21.2879 172.727 23.215 171.932 24.929C171.146 26.6335 170.071 27.983 168.707 28.9773C167.344 29.9621 165.805 30.4545 164.091 30.4545ZM164.091 29.5455C165.634 29.5455 167.017 29.0909 168.239 28.1818C169.47 27.2727 170.44 26.0322 171.151 24.4602C171.861 22.8883 172.216 21.1174 172.216 19.1477C172.216 17.178 171.856 15.4119 171.136 13.8494C170.426 12.2775 169.46 11.0369 168.239 10.1278C167.017 9.20928 165.634 8.75 164.091 8.75C162.557 8.75 161.174 9.20928 159.943 10.1278C158.722 11.0369 157.751 12.2775 157.031 13.8494C156.321 15.4119 155.966 17.178 155.966 19.1477C155.966 21.1174 156.321 22.8883 157.031 24.4602C157.741 26.0322 158.707 27.2727 159.929 28.1818C161.16 29.0909 162.547 29.5455 164.091 29.5455ZM179.528 38.1818V8.18182H180.437V13.75H180.55C180.948 12.5379 181.502 11.4915 182.212 10.6108C182.923 9.73011 183.761 9.0483 184.727 8.56534C185.702 8.08239 186.772 7.84091 187.937 7.84091C189.66 7.84091 191.147 8.33807 192.397 9.33239C193.656 10.3172 194.627 11.6619 195.309 13.3665C196 15.071 196.346 16.9981 196.346 19.1477C196.346 21.2879 196 23.2102 195.309 24.9148C194.618 26.6193 193.642 27.9688 192.383 28.9631C191.123 29.9574 189.641 30.4545 187.937 30.4545C186.781 30.4545 185.716 30.2178 184.741 29.7443C183.765 29.2614 182.918 28.5795 182.198 27.6989C181.478 26.8087 180.929 25.7576 180.55 24.5455H180.437V38.1818H179.528ZM180.437 19.1477C180.437 21.1174 180.74 22.8883 181.346 24.4602C181.961 26.0227 182.828 27.2633 183.945 28.1818C185.072 29.0909 186.403 29.5455 187.937 29.5455C189.471 29.5455 190.797 29.0909 191.914 28.1818C193.041 27.2633 193.907 26.0227 194.513 24.4602C195.129 22.8883 195.437 21.1174 195.437 19.1477C195.437 17.178 195.134 15.4119 194.528 13.8494C193.922 12.2775 193.055 11.0369 191.928 10.1278C190.811 9.20928 189.48 8.75 187.937 8.75C186.393 8.75 185.058 9.20928 183.931 10.1278C182.814 11.0369 181.952 12.2775 181.346 13.8494C180.74 15.4119 180.437 17.178 180.437 19.1477Z" fill="#FFF5F5"/>
</g>
<defs>
<filter id="filter0_d_2_11" x="0.545441" y="0.511368" width="199.8" height="45.6705" filterUnits="userSpaceOnUse" color-interpolation-filters="sRGB">
<feFlood flood-opacity="0" result="BackgroundImageFix"/>
<feColorMatrix in="SourceAlpha" type="matrix" values="0 0 0 0 0 0 0 0 0 0 0 0 0 0 0 0 0 0 127 0" result="hardAlpha"/>
<feOffset dy="4"/>
<feGaussianBlur stdDeviation="2"/>
<feComposite in2="hardAlpha" operator="out"/>
<feColorMatrix type="matrix" values="0 0 0 0 0 0 0 0 0 0 0 0 0 0 0 0 0 0 0.25 0"/>
<feBlend mode="normal" in2="BackgroundImageFix" result="effect1_dropShadow_2_11"/>
<feBlend mode="normal" in="SourceGraphic" in2="effect1_dropShadow_2_11" result="shape"/>
</filter>
</defs>
</svg>
